<?xml version="1.0" encoding="utf-8"?>
<!-- Generator: Adobe Illustrator 28.0.0, SVG Export Plug-In . SVG Version: 6.00 Build 0)  -->
<svg version="1.1" id="Layer_1" xmlns="http://www.w3.org/2000/svg" xmlns:xlink="http://www.w3.org/1999/xlink" x="0px" y="0px"
	 viewBox="0 0 288.9 364.6" style="enable-background:new 0 0 288.9 364.6;" xml:space="preserve">
<style type="text/css">
	.st0{fill:url(#SVGID_1_);}
</style>
<linearGradient id="SVGID_1_" gradientUnits="userSpaceOnUse" x1="268.0722" y1="-1.0302" x2="47.2576" y2="345.7188">
	<stop  offset="0" style="stop-color:#63D052"/>
	<stop  offset="0.3471" style="stop-color:#4BB83A"/>
	<stop  offset="1" style="stop-color:#158303"/>
</linearGradient>
<path class="st0" d="M287.7,5.7c-1.8-3.5-5.4-5.7-9.4-5.7c-24.4,0-75.4,12.6-125.7,36.8C109.1,57.7,50.8,94.3,20.3,150.5
	C-12.5,210.8-5.5,278,41.2,350.1c2.3,3.5,6.4,5.4,10.5,4.7c4.1-0.7,7.5-3.7,8.5-7.8c5.3-20.3,11.4-39.8,18.2-58.5l63.8-18.1
	c5.6-1.6,8.9-7.4,7.3-13c-1.6-5.6-7.4-8.9-13-7.3l-48.3,13.7c9.3-22.1,19.6-42.6,30.9-61.5L184,184c5.6-1.6,8.9-7.4,7.3-13
	c-1.6-5.6-7.4-8.9-13-7.3l-41.6,11.8c10.2-14.2,20.9-27,32.1-38.2c4.1-4.1,4.1-10.8,0-14.9c-4.1-4.1-10.8-4.1-14.9,0
	c-24.3,24.3-46.3,55.3-65.3,91.3l-11-38c-1.6-5.6-7.5-8.8-13.1-7.2c-5.6,1.6-8.8,7.5-7.2,13.1l17.5,60.3c-5,11.1-9.8,22.7-14.3,34.5
	c0,0.1-0.1,0.1-0.1,0.2c-5,13.3-9.7,27-13.9,41.2c-30.9-57.1-33.5-109.9-7.7-157.2C84,77.4,201.9,33.7,257.5,23.5
	C222,83.8,228,129.2,233.4,169.7c3.2,24.1,6.2,46.9-0.1,70.7c-12.5,48-56.4,100.7-123,103.1c-5.8,0.2-10.4,5.1-10.2,10.9
	c0.2,5.7,4.9,10.2,10.5,10.2c0.1,0,0.3,0,0.4,0c77.4-2.8,128.2-63.5,142.7-118.8c7.3-27.8,3.9-53.8,0.6-78.8
	c-5.6-42.8-11.5-87.2,32.7-150.4C289.2,13.4,289.5,9.2,287.7,5.7L287.7,5.7z"/>
</svg>
