<?xml version="1.0" encoding="utf-8"?>
<!-- Generator: Adobe Illustrator 28.0.0, SVG Export Plug-In . SVG Version: 6.00 Build 0)  -->
<svg version="1.1" id="Layer_1" xmlns:serif="http://www.serif.com/"
	 xmlns="http://www.w3.org/2000/svg" xmlns:xlink="http://www.w3.org/1999/xlink" x="0px" y="0px" viewBox="0 0 521.9 522.1"
	 style="enable-background:new 0 0 521.9 522.1;" xml:space="preserve">
<style type="text/css">
	.st0{fill:#FAFAFA;}
</style>
<g transform="matrix(1.01619,0,0,1.01619,44,43.8384)">
	<path class="st0" d="M213.6-43.1c-69.8,0-78.5,0.3-105.9,1.5s-46,5.6-62.4,11.9C28.4-23.1,14.1-14.3-0.2-0.1s-23.1,28.6-29.6,45.5
		c-6.4,16.3-10.7,35-11.9,62.4c-1.3,27.5-1.6,36.3-1.6,106.1s0.3,78.5,1.5,105.9c1.2,27.4,5.6,46,11.9,62.4
		c6.6,16.9,15.4,31.2,29.6,45.5C14,442,28.3,450.8,45.2,457.3c16.3,6.4,35,10.7,62.4,11.9c27.4,1.3,36.2,1.5,105.9,1.5
		c69.8,0,78.5-0.3,105.9-1.5s46-5.6,62.4-11.9c16.9-6.6,31.2-15.4,45.5-29.6c14.3-14.3,23.1-28.6,29.6-45.5
		c6.4-16.3,10.7-35,11.9-62.4c1.3-27.4,1.5-36.2,1.5-105.9c0-69.8-0.3-78.5-1.5-105.9s-5.6-46-11.9-62.4
		c-6.6-16.9-15.4-31.2-29.6-45.5C413-14.2,398.7-23,381.8-29.5c-16.3-6.4-35-10.7-62.4-11.9C292.2-42.8,283.4-43.1,213.6-43.1z
		 M213.6,3.2c68.6,0,76.7,0.3,103.8,1.5c25.1,1.1,38.7,5.3,47.7,8.8c12,4.7,20.6,10.2,29.5,19.2c9,9,14.6,17.6,19.2,29.5
		c3.5,9.1,7.7,22.7,8.8,47.7c1.2,27.1,1.5,35.2,1.5,103.8s-0.3,76.7-1.5,103.8c-1.1,25.1-5.3,38.7-8.8,47.7
		c-4.7,12-10.2,20.6-19.2,29.5c-9,9-17.6,14.6-29.5,19.2c-9.1,3.5-22.7,7.7-47.7,8.8c-27.1,1.2-35.2,1.5-103.8,1.5
		s-76.7-0.3-103.8-1.5c-25.1-1.1-38.7-5.3-47.7-8.8c-12-4.7-20.6-10.2-29.5-19.2c-9-9-14.6-17.6-19.2-29.5
		c-3.5-9.1-7.7-22.7-8.8-47.7c-1.2-27.1-1.5-35.2-1.5-103.8S3.4,137,4.6,109.9c1.1-25.1,5.3-38.7,8.8-47.7
		c4.7-12,10.2-20.6,19.2-29.5c9-9,17.6-14.6,29.5-19.2c9.1-3.5,22.7-7.7,47.7-8.8C136.9,3.5,145,3.2,213.6,3.2z"/>
	<path class="st0" d="M213.6,299.5c-47.3,0-85.7-38.3-85.7-85.7c0-47.3,38.3-85.7,85.7-85.7c47.3,0,85.7,38.3,85.7,85.7
		C299.3,261.2,260.9,299.5,213.6,299.5z M213.6,81.9c-72.9,0-132,59.1-132,132s59.1,132,132,132s132-59.1,132-132
		S286.5,81.9,213.6,81.9z"/>
	<path class="st0" d="M381.6,76.7c0,17-13.8,30.8-30.8,30.8S320,93.7,320,76.7s13.8-30.8,30.8-30.8
		C367.8,45.9,381.6,59.7,381.6,76.7z"/>
</g>
</svg>
