<?xml version="1.0" encoding="UTF-8"?>
<svg id="Layer_1" data-name="Layer 1" xmlns="http://www.w3.org/2000/svg" viewBox="0 0 288.9 364.59">
  <defs>
    <style>
      .cls-1 {
        fill: #fff;
        stroke-width: 0px;
      }
    </style>
  </defs>
  <path class="cls-1" d="m287.71,5.67c-1.81-3.49-5.42-5.67-9.35-5.67-24.42,0-75.44,12.62-125.7,36.75-43.55,20.9-101.87,57.6-132.39,113.73-32.81,60.33-25.76,127.48,20.94,199.58,2.27,3.51,6.4,5.35,10.53,4.67,4.13-.67,7.47-3.71,8.52-7.75,5.26-20.26,11.36-39.8,18.2-58.47l63.76-18.09c5.6-1.59,8.85-7.42,7.26-13.02-1.59-5.6-7.41-8.85-13.02-7.26l-48.32,13.71c9.27-22.06,19.61-42.65,30.88-61.46l64.94-18.43c5.6-1.59,8.85-7.42,7.26-13.02-1.59-5.6-7.41-8.85-13.02-7.26l-41.55,11.79c10.16-14.16,20.89-26.98,32.12-38.24,4.11-4.12,4.1-10.8-.02-14.91-4.12-4.11-10.8-4.1-14.91.02-24.27,24.34-46.32,55.33-65.31,91.32l-11.02-37.96c-1.62-5.59-7.47-8.8-13.06-7.18-5.59,1.62-8.81,7.47-7.18,13.06l17.49,60.26c-5.04,11.14-9.81,22.66-14.28,34.54-.03.08-.06.15-.08.22-5.01,13.31-9.65,27.05-13.87,41.17-30.85-57.1-33.47-109.9-7.73-157.23C83.98,77.43,201.92,33.69,257.51,23.45c-35.48,60.3-29.48,105.72-24.14,146.24,3.18,24.11,6.18,46.89-.05,70.73-12.54,47.98-56.39,100.71-123.03,103.1-5.82.21-10.36,5.09-10.15,10.91.2,5.69,4.88,10.16,10.53,10.16.13,0,.26,0,.38,0,77.41-2.77,128.22-63.54,142.67-118.83,7.28-27.84,3.86-53.75.55-78.82-5.65-42.84-11.49-87.15,32.73-150.35,2.25-3.22,2.53-7.42.71-10.91Z"/>
</svg>