<?xml version="1.0" encoding="utf-8"?>
<!-- Generator: Adobe Illustrator 28.0.0, SVG Export Plug-In . SVG Version: 6.00 Build 0)  -->
<svg version="1.1" id="Layer_1" xmlns:serif="http://www.serif.com/"
	 xmlns="http://www.w3.org/2000/svg" xmlns:xlink="http://www.w3.org/1999/xlink" x="0px" y="0px" viewBox="0 0 612.2 612.1"
	 style="enable-background:new 0 0 612.2 612.1;" xml:space="preserve">
<style type="text/css">
	.st0{fill:#FAFAFA;}
</style>
<path class="st0" d="M566.9,0c25,0,45.3,19.8,45.3,44.1v523.8c0,24.4-20.3,44.2-45.3,44.2H45.2C20.3,612.1,0,592.3,0,567.9V44.1
	C0,19.7,20.2,0,45.2,0H566.9z M521.7,521.6V361.4c0-78.7-17-139.2-108.9-139.2c-44.2,0-73.8,24.2-85.9,47.2h-1.2v-39.9h-87v292.1
	h90.7V377.1c0-38.1,7.2-75,54.5-75c46.6,0,47.2,43.6,47.2,77.5v142H521.7L521.7,521.6z M181.7,229.5H90.8v292.1h90.9V229.5z
	 M136.3,84.3c-29.2,0-52.7,23.6-52.7,52.6c0,29.1,23.5,52.7,52.7,52.7c29,0,52.6-23.6,52.6-52.7C188.9,107.8,165.3,84.3,136.3,84.3z
	"/>
</svg>
