<?xml version="1.0" encoding="utf-8"?>
<!-- Generator: Adobe Illustrator 28.0.0, SVG Export Plug-In . SVG Version: 6.00 Build 0)  -->
<svg version="1.1" id="Layer_1" xmlns:serif="http://www.serif.com/"
	 xmlns="http://www.w3.org/2000/svg" xmlns:xlink="http://www.w3.org/1999/xlink" x="0px" y="0px" viewBox="0 0 612 428.4"
	 style="enable-background:new 0 0 612 428.4;" xml:space="preserve">
<style type="text/css">
	.st0{fill:#FAFAFA;}
</style>
<path class="st0" d="M599.2,66.9c-7-26.3-27.8-47.1-54.1-54.1C497.4,0,306,0,306,0S114.6,0,66.9,12.8c-26.3,7-47.1,27.8-54.1,54.1
	C0,114.6,0,214.2,0,214.2s0,99.6,12.8,147.3c7,26.3,27.8,47.1,54.1,54.1c47.7,12.8,239.1,12.8,239.1,12.8s191.4,0,239.1-12.8
	c26.3-7,47.1-27.8,54.1-54.1C612,313.8,612,214.2,612,214.2S612,114.6,599.2,66.9L599.2,66.9z M244.8,306V122.4l159,91.8L244.8,306
	L244.8,306z"/>
</svg>
